@startuml
class clientSide.views.PlaylistPageOpen {
~ Scanner in
+ <<Create>> PlaylistPageOpen(PageService,IPlaylistPlayer,ToolBoxView,int)
+ void displaySpecificContent()
+ void button1()
+ void button2()
+ void button3()
+ void button4()
+ void button5()
}


class clientSide.views.HomePage {
+ <<Create>> HomePage(PageService,IPlaylistPlayer,ToolBoxView,int)
+ void button0()
+ void button1()
+ void button2()
+ void button3()
+ void button9()
}

abstract class clientSide.views.TemplateInversePage {
+ <<Create>> TemplateInversePage(PageService,IPlaylistPlayer)
+ void displayAllPage()
}

class clientSide.services.ToolBoxView {
~ PlaylistServices playlistServ
~ SongService songServ
~ SearchService searchServ
~ UserService userServ
~ PrintService printServ
~ PasswordService passwordServ
~ PlaylistReorderSongService playlistReorderSongServ
~ ArtistService artistServ
~ TemporaryPlaylistService temporaryPlaylistService
~ UniqueIdService uniqueIdServ
+ <<Create>> ToolBoxView(PlaylistServices,UserService,SongService,ArtistService,PrintService,SearchService,PasswordService,PlaylistReorderSongService,TemporaryPlaylistService,UniqueIdService)
+ PlaylistServices getPlaylistServ()
+ SearchService getSearchServ()
+ UserService getUserServ()
+ PrintService getPrintServ()
+ PlaylistReorderSongService getPlaylistReorderSongServ()
+ SongService getSongServ()
+ ArtistService getArtistServ()
+ PasswordService getPasswordServ()
}


class clientSide.services.PrintService {
- MenuService icon
- UserService userService
- PlaylistServices playlistService
- SongService songService
- ArtistService artistService
+ <<Create>> PrintService(SongService,ArtistService,PlaylistServices,UserService)
+ void printSongFound(List<Integer>,String)
+ void printSongList(List<Integer>)
+ void printPlaylist(List<Integer>)
+ void printUserPlaylists(int)
- String printPlaylistStatus(PlaylistEnum)
+ boolean printUserFriends(int)
+ void printUsers(List<Integer>)
+ void printUserPublicPlaylists(int)
}


class clientSide.player.playlist_player.PlaylistPlayer {
- IMusicPlayer musicPlayer
# PlaylistServices playlistServices
# ArtistService artistService
# SongService songService
# IAudioRepository audioRepository
- MenuService icon
# LinkedList<Integer> songIdHistory
~ int currentHistoryIndex
# Song currentSong
# Playlist currentPlaylist
- int lastPlayedPlaylistId
- IState currentState
- IState sequentialState
- IState shuffleState
- IState repeatState
+ <<Create>> PlaylistPlayer(IMusicPlayer,IAudioRepository,SongService,PlaylistServices,ArtistService)
+ void setSequentialMode()
+ void setShuffleMode()
+ void setRepeatMode()
+ int getCurrentPlaylistId()
+ int getCurrentSongId()
+ void playOrPause(int)
+ void play(int,int)
+ void playback()
+ void next()
+ void previous()
+ void stop()
+ boolean isPlaying()
+ boolean isPaused()
+ String getCurrentState()
+ void printCurrentSong()
+ void setCurrentSong(Song)
}


class clientSide.services.Cookies {
- {static} Cookies instance
- int userId
- String userPseudonym
- String userPassword
- int currentFriendId
- int currentFriendPlaylistId
- int currentPlaylistId
- int currentSongId
- <<Create>> Cookies(int,String,String)
+ {static} void initializeInstance(int,String,String)
+ {static} void setCurrentPlaylistId(int)
+ {static} void setCurrentSongId(int)
+ {static} void resetCookies()
+ {static} Cookies getInstance()
+ int getUserId()
+ String getUserPseudonym()
+ String getUserPassword()
+ int getCurrentPlaylistId()
+ int getCurrentSongId()
+ String toString()
+ int getCurrentFriendId()
+ void setCurrentFriendId(int)
+ int getCurrentFriendPlaylistId()
+ void setCurrentFriendPlaylistId(int)
}


enum common.entities.PlanEnum {
+  FREE
+  PREMIUM
}

class clientSide.services.SearchService {
~ Scanner scanner
- MenuService icon
- SongService songService
- PrintService printService
- UserService userService
+ <<Create>> SearchService(SongService,PrintService,UserService)
+ void searchSong(String,String,int,PageService,PlaylistServices)
+ LinkedList<Integer> searchByTitle(String)
- LinkedList<Integer> searchByArtist(String)
- LinkedList<Integer> searchByGender(MusicGender)
- LinkedList<Integer> listSongToListInt(LinkedList<Song>)
+ LinkedList<Integer> chooseFoundedSongs(List<Integer>,PageService)
+ LinkedList<Integer> chooseFoundedPlaylist(List<Integer>,PageService)
- void loopIntInputValidation(PageService,LinkedList<Integer>,int)
+ List<Integer> searchUserByPseudonym(String)
}


interface common.repository.IAudioRepository {
~ InputStream getStream(String)
}

class clientSide.services.ToolBoxService {
+ IUserRepository userRepository
+ IPlaylistRepository playlistRepository
+ ISongRepository songRepository
+ IArtistRepository artistRepository
+ IAudioRepository audioRepository
+ <<Create>> ToolBoxService(IPlaylistRepository,IUserRepository,ISongRepository,IArtistRepository,IAudioRepository)
}


class clientSide.views.FriendOptions {
+ <<Create>> FriendOptions(PageService,IPlaylistPlayer,ToolBoxView,int)
+ void displaySpecificContent()
+ void button1()
+ void button2()
}

class clientSide.views.FriendsDisplayFriends {
+ <<Create>> FriendsDisplayFriends(PageService,IPlaylistPlayer,ToolBoxView,int)
+ void displaySpecificContent()
+ void validateInput()
}

class clientSide.services.PasswordService {
- IUserRepository userRepository
+ <<Create>> PasswordService(IUserRepository)
+ byte[] generateSalt()
+ String hashPassword(String,byte[])
+ boolean verifyUserAuthentification(String,String)
+ boolean passwordCheck(String,String)
}


class clientSide.player.playlist_player.RepeatState {
- PlaylistPlayer playlistPlayer
+ String stateName
+ <<Create>> RepeatState(PlaylistPlayer)
+ Song getNextSong()
+ Song getPreviousSong()
+ String getStateName()
}


class clientSide.services.PageService {
~ ArrayList<InterfaceMenu> pages
- Scanner scanner
- Stack<Integer> menuPagesStack
- IPlaylistPlayer spotifyPlayer
+ Login login
+ CreateAccount createAccount
+ HomePage homePage
+ PlaylistHomePage playlistHomePage
+ PlaylistChoseList playlistChoseList
+ PlaylistPageShared playlistPageShared
+ PlaylistPageOpen playlistPageOpen
+ PlaylistCreation playlistCreation
+ PlaylistDeletion playlistDeletion
+ Search search
+ ActionFoundedSongs actionFoundedSongs
+ SearchGender searchGender
+ FriendsPlaylistPage friendsPlaylistPage
+ FriendsDisplayFriends friendsDisplayFriends
+ FriendsHomePage friendsHomePage
+ FriendSearch friendSearch
+ FriendPlaylists friendPlaylists
+ FriendOptions friendOptions
+ SongPlayer songPlayer
- UserService userService
- ToolBoxView toolBoxView
+ <<Create>> PageService(IPlaylistPlayer,ToolBoxView,UserService,Stack<Integer>)
- void setUpPages()
+ void startLogin()
+ String gotAnInputGoBackIf0(String)
+ int tryParseInt(String)
+ Stack<Integer> getMenuPages()
+ void addToStack(int)
+ void goBack(int)
+ InterfaceMenu getPageById(int)
+ void pageIsPremium(boolean)
}


interface clientSide.views.InterfaceMenu {
~ void displayAllPage()
~ int getPageId()
~ void displayTitle(String)
~ void displayContent(String)
~ void displaySpecificContent()
~ void validateInput()
~ void switchPage()
~ void button0()
~ void button1()
~ void button2()
~ void button3()
~ void button4()
~ void button5()
~ void button6()
~ void button7()
~ void button8()
~ void button9()
}

class clientSide.services.PlaylistFunctionalitiesService {
~ Scanner scanner
- IUserRepository userRepository
- IPlaylistRepository playlistRepository
- UserService userService
- SongService songService
+ <<Create>> PlaylistFunctionalitiesService(ToolBoxService,UserService,SongService)
+ void createNewPlaylist(String,PlaylistEnum,PlaylistServices)
+ void createAllSongPlaylist(User,PlaylistServices)
+ void removePlaylistFromUser(int)
+ void deletePlaylist(int)
+ void renamePlayList(int,String)
+ boolean verifyPlaylistName(String,User)
+ void deleteSongFromPlaylist(int,int)
+ boolean isCurrentUserOwnerOfPlaylist(int)
+ int takeAndValidateInputChoice(int,PageService)
+ void playlistPageRouter(int,PlaylistServices,PageService)
}


class clientSide.views.PlaylistCreation {
- String playlistName
+ <<Create>> PlaylistCreation(PageService,IPlaylistPlayer,ToolBoxView,int)
+ void displaySpecificContent()
+ void button1()
+ void button2()
- void playlistNameVerification()
}


class clientSide.player.playlist_player.ShuffleState {
- PlaylistPlayer playlistPlayer
+ String stateName
+ <<Create>> ShuffleState(PlaylistPlayer)
+ Song getNextSong()
+ Song getPreviousSong()
+ String getStateName()
}


abstract class clientSide.views.TemplateSimplePage {
~ int index
+ String pageTitle
+ int pageId
+ String pageContent
+ IPlaylistPlayer spotifyPlayer
~ PageService pageService
~ Scanner scanner
~ boolean isFree
+ ToolBoxView toolBoxView
# MenuService icon
+ <<Create>> TemplateSimplePage(PageService,IPlaylistPlayer)
+ void displayAllPage()
+ int getPageId()
+ void displayTitle(String)
+ void displayContent(String)
+ void displaySpecificContent()
+ void validateInput()
+ void switchPage()
+ void handelInvalidIndex()
+ void button0()
+ void button1()
+ void button2()
+ void button3()
+ void button4()
+ void button5()
+ void button6()
+ void button7()
+ void button8()
+ void button9()
}


enum common.entities.MusicGender {
+  SOUL_RNB
+  POP
+  HIP_HOP
+  ROCK
+  FRENCH_VARIETY
+  ELECTRO
+  DISCO
+  REGGAE
+  NULL
- String displayName
~ <<Create>> MusicGender(String)
+ String getDisplayName()
}


class common.entities.Artist {
- String artistName
- int artistId
- LinkedList<Integer> artistSongsID
- UniqueIdService uniqueIdService
+ <<Create>> Artist()
+ <<Create>> Artist(String)
+ <<Create>> Artist(int,String,LinkedList<Integer>)
+ String getArtistName()
+ int getArtistId()
+ LinkedList<Integer> getArtistSongsID()
+ void setArtistName(String)
+ void setArtistId(int)
+ void setArtistSongsID(LinkedList<Integer>)
}


class clientSide.views.CreateAccount {
- String pseudonym
- String password
- String email
- PlanEnum planEnum
+ <<Create>> CreateAccount(PageService,IPlaylistPlayer,ToolBoxView,int)
+ void displaySpecificContent()
+ void button1()
+ void button2()
- void createAccount()
}


class clientSide.views.PlaylistDeletion {
+ <<Create>> PlaylistDeletion(PageService,IPlaylistPlayer,ToolBoxView,int)
+ void button1()
+ void button2()
}

class clientSide.views.ActionFoundedSongs {
+ <<Create>> ActionFoundedSongs(PageService,IPlaylistPlayer,ToolBoxView,int)
+ void button1()
+ void button2()
- void verificationAndThenAction()
+ void button3()
+ void button8()
+ void handelInvalidIndex()
}

class common.entities.Playlist {
- String name
- int playlistId
- LinkedList<Integer> listSongsId
- int ownerId
- PlaylistEnum status
- UniqueIdService uniqueIdService
+ <<Create>> Playlist()
+ <<Create>> Playlist(String,PlaylistEnum)
+ <<Create>> Playlist(String,LinkedList<Integer>,int,PlaylistEnum)
+ <<Create>> Playlist(String,int,LinkedList<Integer>,int,PlaylistEnum)
+ String getName()
+ void setName(String)
+ int getPlaylistId()
+ void setPlaylistId(int)
+ LinkedList<Integer> getPlaylistSongsListWithId()
+ void setListSongsId(LinkedList<Integer>)
+ int getOwnerId()
+ void setOwnerId(int)
+ PlaylistEnum getStatus()
+ void setStatus(PlaylistEnum)
}


interface common.repository.IPlaylistRepository {
~ List<Playlist> getAllPlaylists()
~ void updateOrInsertPlaylist(Playlist)
~ void deletePlaylistById(int)
~ Playlist getPlaylistById(int)
~ Playlist getPlaylistByName(String)
~ PlaylistEnum getPlaylistStatus(Playlist)
~ Playlist getTemporaryPlaylistOfCurrentUser(int)
}

enum common.entities.PlaylistEnum {
+  PRIVATE
+  PUBLIC
}

class clientSide.views.PlaylistHomePage {
+ <<Create>> PlaylistHomePage(PageService,IPlaylistPlayer,ToolBoxView,int)
+ void button1()
+ void button2()
}

class clientSide.services.MenuService {
 + String nbr0
    + String nbr1
    + String nbr2
    + String nbr3
    + String nbr4
    + String nbr5
    + String nbr6
    + String nbr7
    + String nbr8
    + String nbr9
    + String playPause
    + String playBack
    + String next
    + String previous
    + String shuffle
    + String sequential
    + String repeatOne
    + String lock
    + String premium
    + String free
    + String group
    + String house
    + String earth
    + String search
    + String lineBreak
    + String eightMusicPlayer
    + String nineHomepage
    + String zeroBack
    + String separator
    + String backHomePageMusicPlayer
}


class common.services.StockageService {
~ String userHome
~ String fileName
- {static} ObjectMapper objectMapper
+ List<T> loadFromJson(String,TypeReference<List<T>>)
+ void saveToJson(String,List<T>)
+ void copyResourceToWritableLocation(String)
+ void copyMp3FilesFromResources()
- boolean isRunningUnderTest()
}


class common.services.UniqueIdService {
+ <<Create>> UniqueIdService()
+ int setUniqueId()
}

interface clientSide.player.file_player.IMusicPlayer {
~ void addSongEndObserver(Runnable)
~ void playOrPause(String)
~ void play(String)
~ void pause()
~ void resume(String)
~ void stop()
~ boolean isPlaying()
~ boolean isPaused()
}

class clientSide.CompositionRootClientSide {
~ Scanner scanner
+ Stack<Integer> menuPagesStack
~ IPlaylistRepository frontPlaylistRepo
~ IUserRepository frontUserRepo
~ ISongRepository frontSongRepo
~ IArtistRepository frontArtistRepo
~ IAudioRepository frontAudioRepo
~ SocketClient socketClient
~ UserService userService
~ ArtistService artistService
~ SongService songService
~ PlaylistFunctionalitiesService playlistFunctionalitiesService
~ PlaylistReorderSongService playlistReorderSongService
~ TemporaryPlaylistService temporaryPlaylistService
~ PlaylistServices playlistServices
~ PrintService printService
~ SearchService searchService
~ PasswordService passwordService
~ UniqueIdService uniqueIdService
~ IMusicPlayer musicPlayer
~ IPlaylistPlayer spotifyPlayer
~ ToolBoxView toolBoxView
~ BasicPlayer basicPlayer
~ PageService pageService
~ ToolBoxService toolBoxService
+ <<Create>> CompositionRootClientSide()
+ {static} void main(String[])
+ void startApp()
}


class clientSide.services.SongService {
- ISongRepository songRepository
+ <<Create>> SongService(ToolBoxService)
+ void setCurrentSongId(int)
+ int getCurrentSongId()
+ Song getSongById(int)
+ LinkedList<Song> getSongByTitle(String)
+ LinkedList<Song> getSongsByArtist(String)
+ LinkedList<Song> getSongsByGender(MusicGender)
}


interface common.repository.ISongRepository {
~ ArrayList<Song> getAllSongs()
~ void addSong(Song)
~ Song getSongById(int)
~ LinkedList<Song> getSongsByTitle(String)
~ LinkedList<Song> getSongsByArtist(String)
~ LinkedList<Song> getSongsByGender(MusicGender)
}

class clientSide.repoFront.FrontArtistRepo {
- ObjectMapper mapper
- SocketClient socketClient
+ <<Create>> FrontArtistRepo(SocketClient)
+ List<Artist> getAllArtists()
+ void addArtist(Artist)
+ Artist getArtistById(int)
+ void updateOrInsertArtist(Artist)
+ Artist getArtistByName(String)
+ Artist getArtistBySongId(int)
- Artist getArtistFromServer(Map<String,Object>)
}


class clientSide.views.FriendSearch {
+ <<Create>> FriendSearch(PageService,IPlaylistPlayer,ToolBoxView,int)
+ void displaySpecificContent()
}

class common.entities.Song {
- String title
- int artistId
- int durationSeconds
- MusicGender gender
- int songId
- String audioFileName
- UniqueIdService uniqueIdService
+ <<Create>> Song()
+ <<Create>> Song(int,String,int,int,MusicGender,String)
+ <<Create>> Song(String,int,int,MusicGender,String)
+ String getTitle()
+ void setTitle(String)
+ int getArtistId()
+ void setArtistId(int)
+ int getDurationSeconds()
+ void setDurationSeconds(int)
+ MusicGender getGender()
+ void setGender(MusicGender)
+ int getSongId()
+ void setSongId(int)
+ String getAudioFileName()
+ void setAudioFileName(String)
}


class clientSide.services.PlaylistServices {
- IPlaylistRepository playlistRepository
- TemporaryPlaylistService temporaryPlaylistService
- PlaylistFunctionalitiesService playlistFuncService
- ISongRepository songRepository
+ <<Create>> PlaylistServices(ToolBoxService,PlaylistFunctionalitiesService,TemporaryPlaylistService)
+ int setDurationSeconds(int)
+ void setCurrentPlaylistId(int)
+ int getCurrentPlaylistId()
+ PlaylistEnum getPlaylistStatus()
+ int getAllSongsPlaylistId()
+ Playlist getPlaylistByName(String)
+ Playlist getPlaylistById(int)
+ List<Integer> getPublicPlaylists()
+ List<Integer> getUserPublicPlaylists(User)
+ int getCurrentFriendPlaylistId()
+ void setCurrentFriendPlaylistId(int)
+ void createNewPlaylist(String,PlaylistEnum)
+ void createAllSongPlaylist(User)
+ void deletePlaylist(int)
+ void renamePlayList(int,String)
+ boolean verifyPlaylistName(String,User)
+ void deleteSongFromPlaylist(int,int)
+ boolean isCurrentUserOwnerOfPlaylist(int)
+ int takeAndValidateInputChoice(int,PageService)
+ void playlistPageRouter(int,PageService)
+ int getTemporaryPlaylistId()
+ void createTemporaryPlaylist(LinkedList<Integer>,PlaylistEnum)
+ void adjustTemporaryPlaylistToNewPlaylist(String,PlaylistEnum)
+ void addSongToPlaylistFromTemporaryPlaylist(int,int)
+ void getAndAddSelectionOfPlaylistsToCurrentUserPlaylists(List<Integer>,LinkedList<Integer>,ToolBoxView)
}


class clientSide.views.Login {
+ <<Create>> Login(PageService,IPlaylistPlayer,ToolBoxView,int)
+ void button0()
+ void button1()
+ void button2()
}

class clientSide.services.PrintHelper << (S, #FF7700) static >> {
    ~ {static} String PRINT_RESET
    ~ {static} String PRINT_BLACK
    ~ {static} String PRINT_RED
    ~ {static} String PRINT_GREEN
    ~ {static} String PRINT_YELLOW
    ~ {static} String PRINT_BLUE
    ~ {static} String PRINT_WHITE
    ~ {static} String PRINT_GREY
    ~ {static} String PRINT_BG_WHITE
    ~ {static} String PRINT_BOLD

    + {static} void printLN()
    + {static} void printLNBgWhite(String)
    + {static} void printLNWhite(String)
    + {static} void printLNBlue(String)
    + {static} void printLNGreen(String)
    + {static} void printLNGrey(String)
    + {static} void printLNInfo(String)
    + {static} void printInvalidInputTryAgain()
    + {static} void printYourInput()
    + {static} void printInvalidInputTryAgainOrBack()
    + {static} void printInvalidInput()
    + {static} void printLNError(String)
    + {static} void printWhite(String)
    + {static} void printInfo(String)
}



class clientSide.socket.SocketClient {
- String SERVER_ADDRESS
- int ServerPort
- ObjectMapper mapper
+ void setServerPort(int)
+ Map<String,Object> sendRequest(Map<String,Object>)
}


class clientSide.repoFront.FrontPlaylistRepo {
- ObjectMapper mapper
- SocketClient socketClient
+ <<Create>> FrontPlaylistRepo(SocketClient)
+ Playlist getPlaylistById(int)
+ Playlist getPlaylistByName(String)
+ List<Playlist> getAllPlaylists()
+ void deletePlaylistById(int)
+ void updateOrInsertPlaylist(Playlist)
+ PlaylistEnum getPlaylistStatus(Playlist)
+ Playlist getTemporaryPlaylistOfCurrentUser(int)
- Playlist getPlaylistFromServer(Map<String,Object>)
}


interface common.repository.IUserRepository {
~ Optional<User> authenticate(String,String)
~ User getUserByPseudonym(String)
~ List<User> getAllUsers()
~ void updateOrInsertUser(User)
~ User getUserById(int)
}

class clientSide.views.Search {
+ <<Create>> Search(PageService,IPlaylistPlayer,ToolBoxView,int)
+ void button1()
+ void button2()
+ void button3()
+ void button4()
}

class clientSide.views.SearchGender {
+ <<Create>> SearchGender(PageService,IPlaylistPlayer,ToolBoxView,int)
+ void button1()
+ void button2()
+ void button3()
+ void button4()
+ void button5()
+ void button6()
+ void button7()
+ void button8()
}

class clientSide.views.FriendsPlaylistPage {
+ <<Create>> FriendsPlaylistPage(PageService,IPlaylistPlayer,ToolBoxView,int)
+ void displaySpecificContent()
+ void button1()
+ void button2()
}

class clientSide.services.PlaylistReorderSongService {
- Scanner scanner
- IPlaylistRepository playlistRepository
+ <<Create>> PlaylistReorderSongService(ToolBoxService,Scanner)
+ void reorderSongsInPlaylist(int,PlaylistServices)
- LinkedList<Integer> collectNewOrderFromUser(Playlist)
- boolean isValidIndex(int,Playlist)
- void completeWithRemainingSongs(Playlist,List<Integer>)
}


class common.entities.User {
- int userId
- String pseudonym
- String email
- String password
- byte[] salt
- PlanEnum planEnum
- List<Integer> playlists
- List<Integer> friends
- UniqueIdService uniqueIdService
+ <<Create>> User()
+ <<Create>> User(String,String,String,PlanEnum)
+ <<Create>> User(String,String,String,byte[],PlanEnum,List<Integer>,List<Integer>)
+ <<Create>> User(int,String,String,String,byte[],PlanEnum,List<Integer>,List<Integer>)
+ void setPlanEnum(PlanEnum)
+ int getUserId()
+ void setUserId(int)
+ String getPseudonym()
+ void setPseudonym(String)
+ String getEmail()
+ void setEmail(String)
+ String getPassword()
+ void setPassword(String)
+ byte[] getSalt()
+ void setSalt(byte[])
+ PlanEnum getPlanEnum()
+ List<Integer> getPlaylists()
+ void setPlaylists(List<Integer>)
+ List<Integer> getFriends()
+ void setFriends(List<Integer>)
}


interface clientSide.player.playlist_player.IState {
~ Song getNextSong()
~ Song getPreviousSong()
~ String getStateName()
}

class clientSide.repoFront.FrontUserRepo {
- ObjectMapper mapper
- SocketClient socketClient
+ <<Create>> FrontUserRepo(SocketClient)
+ Optional<User> authenticate(String,String)
+ User getUserByPseudonym(String)
+ void updateOrInsertUser(User)
+ List<User> getAllUsers()
+ User getUserById(int)
- User getUserFromServer(Map<String,Object>)
}


class clientSide.services.ArtistService {
- IArtistRepository artistRepository
+ <<Create>> ArtistService(ToolBoxService)
+ String getArtistNameBySong(int)
}


class clientSide.repoFront.FrontAudioRepo {
- {static} String SERVER_ADDRESS
- {static} int SERVER_PORT
+ InputStream getStream(String)
}


class clientSide.services.UserService {
- IUserRepository userRepository
- PasswordService passwordService
+ <<Create>> UserService(ToolBoxService,PasswordService)
+ void addUser(String,String,String,PlanEnum)
+ void addUser(int,String,String,String,PlanEnum)
+ boolean emailValidation(String)
+ void addOnePlaylistToCurrentUser(int)
+ void addFriend(int)
+ void deleteFriend(int)
+ void saveUser(User)
+ int getCurrentUserId()
+ void resetCookie()
+ User getUserByPseudonym(String)
+ List<Integer> getUsersByPseudonym(String)
+ User getUserById(int)
+ void setCurrentFriendId(int)
+ int getCurrentFriendId()
}


class clientSide.player.playlist_player.SequentialState {
- PlaylistPlayer playlistPlayer
+ String stateName
+ <<Create>> SequentialState(PlaylistPlayer)
+ Song getNextSong()
+ Song getPreviousSong()
+ String getStateName()
}


class clientSide.services.TemporaryPlaylistService {
- IPlaylistRepository playlistRepository
- UserService userService
+ <<Create>> TemporaryPlaylistService(ToolBoxService,UserService)
+ int getTemporaryPlaylistId()
+ void createTemporaryPlaylist(LinkedList<Integer>,PlaylistEnum)
+ void adjustTemporaryPlaylistToNewPlaylist(String,PlaylistEnum)
+ void addSongToPlaylistFromTemporaryPlaylist(int,int)
}


class clientSide.player.file_player.MusicPlayer {
- IAudioRepository audioRepository
- boolean isPlaying
- boolean isPaused
- BasicPlayer basicPlayer
- List<Runnable> songEndObservers
+ <<Create>> MusicPlayer(IAudioRepository,BasicPlayer)
+ void addSongEndObserver(Runnable)
+ void playOrPause(String)
+ void play(String)
+ void pause()
+ void resume(String)
+ void stop()
+ boolean isPlaying()
+ boolean isPaused()
+ void opened(Object,Map)
+ void progress(int,long,byte[],Map)
+ void stateUpdated(BasicPlayerEvent)
+ void setController(BasicController)
}


interface common.repository.IArtistRepository {
~ List<Artist> getAllArtists()
~ void addArtist(Artist)
~ Artist getArtistById(int)
~ void updateOrInsertArtist(Artist)
~ Artist getArtistByName(String)
~ Artist getArtistBySongId(int)
}

class clientSide.views.PlaylistPageShared {
+ <<Create>> PlaylistPageShared(PageService,IPlaylistPlayer,ToolBoxView,int)
+ void displaySpecificContent()
+ void button1()
}

class clientSide.views.SongPlayer {
+ <<Create>> SongPlayer(PageService,IPlaylistPlayer,ToolBoxView,int)
+ void displaySpecificContent()
+ void button1()
+ void button2()
+ void button3()
+ void button4()
+ void button5()
+ void button8()
~ void loop()
}

class clientSide.views.FriendsHomePage {
+ <<Create>> FriendsHomePage(PageService,IPlaylistPlayer,ToolBoxView,int)
+ void button1()
+ void button2()
}

class clientSide.repoFront.FrontSongRepo {
- ObjectMapper mapper
- SocketClient socketClient
+ <<Create>> FrontSongRepo(SocketClient)
+ ArrayList<Song> getAllSongs()
+ void addSong(Song)
+ Song getSongById(int)
+ LinkedList<Song> getSongsByTitle(String)
+ LinkedList<Song> getSongsByArtist(String)
+ LinkedList<Song> getSongsByGender(MusicGender)
- LinkedList<Song> getResponse(Map<String,Object>)
- Song getSongFromServer(Map<String,Object>)
}


class clientSide.views.PlaylistChoseList {
+ <<Create>> PlaylistChoseList(PageService,IPlaylistPlayer,ToolBoxView,int)
+ void displaySpecificContent()
+ void validateInput()
+ void button8()
+ void button9()
}

class clientSide.views.FriendPlaylists {
+ <<Create>> FriendPlaylists(PageService,IPlaylistPlayer,ToolBoxView,int)
+ void displaySpecificContent()
+ void validateInput()
}

interface clientSide.player.playlist_player.IPlaylistPlayer {
~ void playOrPause(int)
~ void play(int,int)
~ void playback()
~ void next()
~ void previous()
~ void setShuffleMode()
~ void setRepeatMode()
~ void setSequentialMode()
~ int getCurrentPlaylistId()
~ int getCurrentSongId()
~ void stop()
~ boolean isPlaying()
~ boolean isPaused()
~ String getCurrentState()
~ void setCurrentSong(Song)
}

'interfaces !'
'--- Dépendances vers clientSide.views.InterfaceMenu ---
clientSide.views.TemplateSimplePage ..u.|> clientSide.views.InterfaceMenu

'--- Dépendances vers clientSide.views.TemplateSimplePage ---
clientSide.views.TemplateInversePage -u-|> clientSide.views.TemplateSimplePage

'clientSide.views.PlaylistPageOpen -u-|> clientSide.views.TemplateSimplePage
'clientSide.views.HomePage -u-|> clientSide.views.TemplateSimplePage
'clientSide.views.FriendOptions -u-|> clientSide.views.TemplateSimplePage
'clientSide.views.FriendsDisplayFriends -u-|> clientSide.views.TemplateSimplePage
'clientSide.views.PlaylistDeletion -u-|> clientSide.views.TemplateSimplePage
'clientSide.views.ActionFoundedSongs -u-|> clientSide.views.TemplateSimplePage
'clientSide.views.PlaylistHomePage -u-|> clientSide.views.TemplateSimplePage
'clientSide.views.FriendSearch -u-|> clientSide.views.TemplateSimplePage
'clientSide.views.Login -u-|> clientSide.views.TemplateSimplePage
'clientSide.views.Search -u-|> clientSide.views.TemplateSimplePage
'clientSide.views.SearchGender -u-|> clientSide.views.TemplateSimplePage
'clientSide.views.FriendsPlaylistPage -u-|> clientSide.views.TemplateSimplePage
'clientSide.views.PlaylistPageShared -u-|> clientSide.views.TemplateSimplePage
'clientSide.views.SongPlayer -u-|> clientSide.views.TemplateSimplePage
'clientSide.views.FriendsHomePage -u-|> clientSide.views.TemplateSimplePage
'clientSide.views.PlaylistChoseList -u-|> clientSide.views.TemplateSimplePage
'clientSide.views.FriendPlaylists -u-|> clientSide.views.TemplateSimplePage
'
''--- Dépendances vers clientSide.views.TemplateInversePage ---
'clientSide.views.PlaylistCreation -u-|> clientSide.views.TemplateInversePage
'clientSide.views.CreateAccount -u-|> clientSide.views.TemplateInversePage

'--- Dépendances vers clientSide.player.playlist_player.IState ---
clientSide.player.playlist_player.RepeatState ..u.|> clientSide.player.playlist_player.IState
clientSide.player.playlist_player.ShuffleState ..u.|> clientSide.player.playlist_player.IState
clientSide.player.playlist_player.SequentialState ..u.|> clientSide.player.playlist_player.IState

'--- Dépendances vers clientSide.player.playlist_player ---
clientSide.player.playlist_player.PlaylistPlayer ..u.|> clientSide.player.playlist_player.IPlaylistPlayer

'--- Dépendances vers common.repository ---
clientSide.repoFront.FrontArtistRepo ..u.|> common.repository.IArtistRepository
clientSide.repoFront.FrontPlaylistRepo ..u.|> common.repository.IPlaylistRepository
clientSide.repoFront.FrontUserRepo ..u.|> common.repository.IUserRepository
clientSide.repoFront.FrontAudioRepo ..u.|> common.repository.IAudioRepository
clientSide.repoFront.FrontSongRepo ..u.|> common.repository.ISongRepository

'--- Dépendances vers clientSide.player.file_player ---
clientSide.player.file_player.MusicPlayer ..u.|> clientSide.player.file_player.IMusicPlayer
clientSide.player.file_player.MusicPlayer ..u.|> clientSide.player.file_player.BasicPlayerListener



@enduml